<svg width="516" height="644" viewBox="0 0 516 644" fill="none" xmlns="http://www.w3.org/2000/svg">
<g opacity="0.5" clip-path="url(#clip0_385_427)">
<path fill-rule="evenodd" clip-rule="evenodd" d="M88.4221 267.606C39.6741 267.606 0 228.35 0 180.117C0 131.868 39.6741 92.6276 88.4221 92.6276C89.3222 92.6276 90.1927 92.6422 91.0337 92.6568C90.9156 90.9196 90.8714 89.2261 90.8714 87.5619C90.8714 54.3356 109.491 24.3794 139.472 9.3867C180.312 -11.0367 229.827 3.03634 253.95 40.4816C268.203 31.0801 285.022 25.9268 302.167 25.7955C325.774 25.5911 347.979 34.4962 364.799 50.905C378.741 64.4816 387.564 81.8393 390.309 100.671C402.038 95.2991 414.712 92.4962 427.578 92.4962C476.326 92.4962 516 131.752 516 179.985C516 228.219 476.326 267.474 427.578 267.474H283.296C279.18 267.474 275.845 264.175 275.845 260.102C275.845 256.029 279.18 252.73 283.296 252.73H427.578C468.122 252.73 501.098 220.102 501.098 179.985C501.098 139.868 468.122 107.241 427.578 107.241C413.591 107.241 399.825 111.241 387.771 118.817C385.484 120.248 382.592 120.35 380.217 119.066C377.841 117.781 376.351 115.328 376.322 112.657C376.145 93.2261 368.34 75.0363 354.367 61.4013C340.38 47.7663 321.864 40.3356 302.314 40.54C285.627 40.6714 269.324 46.5254 256.384 57.0363C254.643 58.4524 252.342 59.0217 250.129 58.5546C247.915 58.102 246.042 56.6714 245.024 54.6714C226.684 18.8904 182.362 4.46699 146.214 22.54C121.28 35.0071 105.788 59.9123 105.788 87.5473C105.788 91.2699 106.142 95.2991 106.821 99.5181C107.204 101.839 106.437 104.219 104.755 105.883C103.073 107.562 100.698 108.336 98.337 107.971C95.5484 107.547 92.5091 107.358 88.4369 107.358C47.8923 107.358 14.9165 139.985 14.9165 180.102C14.9165 220.219 47.8923 252.847 88.4369 252.847H232.571C236.688 252.847 240.022 256.146 240.022 260.219C240.022 264.292 236.688 267.591 232.571 267.591L88.4221 267.606Z" fill="#D4D3F2"/>
<path fill-rule="evenodd" clip-rule="evenodd" d="M344.054 644H109.904C105.788 644 102.453 640.701 102.453 636.628V428.993C102.453 424.92 105.788 421.62 109.904 421.62C114.035 421.62 117.355 424.92 117.355 428.993V629.255H336.603V363.664H183.528C179.411 363.664 176.077 360.365 176.077 356.292C176.077 352.219 179.411 348.92 183.528 348.92H344.069C348.185 348.92 351.52 352.219 351.52 356.292V636.628C351.52 640.701 348.17 644 344.054 644Z" fill="#D4D3F2"/>
<path fill-rule="evenodd" clip-rule="evenodd" d="M127.934 421.62H176.077V374.058L127.934 421.62ZM183.528 436.365H109.904C106.894 436.365 104.165 434.569 103.014 431.81C101.863 429.051 102.512 425.883 104.652 423.766L178.275 351.066C180.4 348.963 183.602 348.336 186.39 349.474C189.179 350.613 190.979 353.299 190.979 356.292V428.993C190.979 433.066 187.659 436.365 183.528 436.365Z" fill="#D4D3F2"/>
<path fill-rule="evenodd" clip-rule="evenodd" d="M312.967 473.139H146.657C142.541 473.139 139.206 469.839 139.206 465.766C139.206 461.693 142.541 458.394 146.657 458.394H312.982C317.113 458.394 320.433 461.693 320.433 465.766C320.418 469.839 317.098 473.139 312.967 473.139Z" fill="#D4D3F2"/>
<path fill-rule="evenodd" clip-rule="evenodd" d="M312.967 540.248H146.657C142.541 540.248 139.206 536.949 139.206 532.876C139.206 528.803 142.541 525.504 146.657 525.504H312.982C317.113 525.504 320.433 528.803 320.433 532.876C320.418 536.949 317.098 540.248 312.967 540.248Z" fill="#D4D3F2"/>
<path fill-rule="evenodd" clip-rule="evenodd" d="M312.967 607.226H146.657C142.541 607.226 139.206 603.927 139.206 599.854C139.206 595.781 142.541 592.482 146.657 592.482H312.982C317.113 592.482 320.433 595.781 320.433 599.854C320.418 603.927 317.098 607.226 312.967 607.226Z" fill="#D4D3F2"/>
<path fill-rule="evenodd" clip-rule="evenodd" d="M240.155 347.796H275.845V225.971C275.845 221.898 279.18 218.599 283.296 218.599H299.29L258.007 165.255L216.725 218.599H232.719C236.835 218.599 240.17 221.898 240.17 225.971L240.155 347.796ZM283.296 362.54H232.704C228.587 362.54 225.253 359.241 225.253 355.168V233.343H201.617C198.784 233.343 196.187 231.752 194.933 229.241C193.679 226.73 193.974 223.723 195.7 221.489L252.091 148.642C253.507 146.818 255.691 145.752 258.007 145.752C260.324 145.752 262.507 146.818 263.924 148.642L320.315 221.489C322.041 223.723 322.336 226.715 321.082 229.241C319.828 231.752 317.246 233.358 314.398 233.358H290.762V355.182C290.747 359.241 287.413 362.54 283.296 362.54Z" fill="#D4D3F2"/>
</g>
<defs>
<clipPath id="clip0_385_427">
<rect width="516" height="644" fill="white"/>
</clipPath>
</defs>
</svg>
