<svg width="103" height="92" viewBox="0 0 103 92" fill="none" xmlns="http://www.w3.org/2000/svg">
<path d="M39.592 0.64684C37.9628 1.4098 36.4929 2.06358 35.0668 2.77261C28.0093 6.28355 24.302 12.2491 23.3035 20.2076C22.3501 27.803 22.3514 35.7536 22.3315 43.691C22.293 59.3002 22.3541 74.9435 22.4364 90.5947C22.4417 91.6918 22.0381 92.0049 20.8709 91.9944C13.9794 91.9352 7.12517 91.9654 0.227069 91.9654C0.138104 91.8036 -0.00131842 91.6471 9.41522e-06 91.5392C0.205824 70.7367 -0.285475 49.6921 0.407654 29.058C0.606829 23.124 1.25614 17.4175 4.05787 12.7556C8.52072 5.32721 16.1013 1.42164 26.1384 0.289037C30.3158 -0.181894 34.7176 -0.0871812 39.592 0.645525V0.64684Z" fill="#2F2B73"/>
<path d="M66.8577 0.638943C65.409 1.29404 64.1728 1.83863 62.9552 2.40559C54.9802 6.12174 51.1149 12.799 50.3102 21.7151C49.3143 32.7596 49.5148 44.2304 49.5002 55.6248C49.4843 67.2455 49.5626 78.8978 49.6489 90.5527C49.6569 91.5945 49.3555 92.0141 48.1272 91.9996C41.5266 91.922 34.9657 91.947 28.4102 91.9799C27.4422 91.9852 27.1674 91.8497 27.174 90.8763C27.3307 70.2829 27.0731 49.5461 27.5432 29.0619C27.6786 23.1555 28.4607 17.5307 31.1841 12.8832C35.6363 5.28775 43.2966 1.30193 53.5727 0.274562C57.6983 -0.13849 62.0297 -0.00562972 66.8577 0.637626V0.638943Z" fill="#2F2B73"/>
<path d="M80.9579 91.9602C80.95 83.4268 80.9699 75.1342 80.9274 66.8206C80.865 54.8579 81.108 42.9964 80.6645 30.9061C80.5211 26.9848 79.978 22.9661 78.1947 18.7158C76.0967 13.7145 72.416 9.54321 67.337 6.22959C65.6546 5.1325 66.0955 4.8852 66.8776 4.33665C72.9431 0.0837991 86.9319 1.63603 96.5918 15.293C100.724 21.135 102.122 26.8414 102.6 32.461C103.307 40.7733 102.853 48.7055 102.895 56.7995C102.955 68.1321 102.872 79.4173 102.845 90.721C102.843 91.3156 103.068 91.9891 102.056 91.9825C95.0821 91.9391 88.1349 91.9602 80.9566 91.9602H80.9579Z" fill="#2F2B73"/>
<path d="M54.3946 91.9628C54.3681 86.263 54.311 80.7749 54.3216 75.3092C54.3548 59.5212 53.8608 43.5503 54.4132 27.9425C54.6429 21.4704 55.6919 15.3904 59.1138 10.5561C60.0393 9.24858 61.1573 8.10414 62.3125 6.986C62.8171 6.49797 63.2513 6.54796 64.1091 7.17148C71.4321 12.4938 75.1447 18.733 75.6997 25.5141C76.3597 33.5778 76.0689 41.3443 76.106 49.212C76.1711 63.0584 76.1313 76.8693 76.1857 90.7132C76.1897 91.6721 75.8657 92.001 74.8021 91.9931C68.066 91.9405 61.3618 91.9668 54.3946 91.9668V91.9628Z" fill="#2F2B73"/>
</svg>
